<?xml version="1.0" encoding="utf-8"?>
<!-- Generator: Adobe Illustrator 16.0.0, SVG Export Plug-In . SVG Version: 6.00 Build 0)  -->
<!DOCTYPE svg PUBLIC "-//W3C//DTD SVG 1.1//EN" "http://www.w3.org/Graphics/SVG/1.1/DTD/svg11.dtd">
<svg version="1.1" id="Layer_1" xmlns="http://www.w3.org/2000/svg" xmlns:xlink="http://www.w3.org/1999/xlink" x="0px" y="0px"
	 width="791px" height="1054px" viewBox="0 0 791 1054" enable-background="new 0 0 791 1054" xml:space="preserve">
<g>
	<g>
		<defs>
			<rect id="SVGID_1_" x="1.744" y="7.354" width="787.512" height="1039.293"/>
		</defs>
		<clipPath id="SVGID_2_">
			<use xlink:href="#SVGID_1_"  overflow="visible"/>
		</clipPath>
		
			<rect x="1.744" y="6.252" clip-path="url(#SVGID_2_)" fill-rule="evenodd" clip-rule="evenodd" fill="#FFC325" width="786.399" height="1049.268"/>
	</g>
	<path d="M671.685,931.298v8.863h17.748v5.551h-17.748v8.872h19.968v6.653h-25.516v-35.491h24.395v5.552H671.685 M601.808,931.298
		v8.863h17.745v5.551h-17.745v8.872h19.961v6.653h-26.619v-35.491h25.517v5.552H601.808z M551.893,931.298h-9.981v29.939h-6.656
		v-29.939h-9.981v-5.552h26.619V931.298z M485.345,931.298h-9.982v29.939h-6.66v-29.939h-9.978v-5.552h26.62V931.298z
		 M414.355,961.237h-6.654v-35.491h6.654V961.237z M361.119,925.746v35.491h-6.657l1.109-29.939l-7.763,29.939h-5.546l-7.768-29.939
		v29.939h-5.543v-35.491h8.873l6.651,26.618l7.769-26.618H361.119z M282.367,925.746v35.491h-6.659v-29.939l-7.762,29.939h-5.547
		l-7.762-29.939l1.109,29.939h-6.657v-35.491h9.984l6.652,26.618l6.656-26.618H282.367z M186.977,930.179
		c-5.543,0-9.98,5.551-9.98,13.314c0,7.762,4.438,12.203,9.98,12.203c4.435,0,9.982-3.332,9.982-12.203
		C198.068,936.84,193.633,930.179,186.977,930.179z M186.977,962.35c-4.438,0-8.875-2.223-12.2-5.543
		c-3.326-4.442-4.438-8.884-4.438-13.313c0-11.096,6.657-18.858,16.638-18.858c8.872,0,16.64,6.663,16.64,18.858
		C203.616,953.476,198.068,962.35,186.977,962.35z M128.19,951.255c-1.11,1.109-1.11,3.329-3.326,5.552
		c-2.22,2.22-6.657,5.543-12.203,5.543c-8.873,0-16.636-7.766-16.636-18.856c0-12.195,7.763-18.858,16.636-18.858
		c11.093,0,14.419,8.873,14.419,11.095l-6.651,1.11c0,0,0-2.22-1.11-3.332c-1.111-1.11-2.217-3.329-6.657-3.329
		c-5.543,0-8.873,5.551-8.873,13.314c0,7.762,3.33,12.203,8.873,12.203c3.331,0,5.546-2.221,7.768-3.332
		c1.109-2.22,1.109-3.319,1.109-4.441L128.19,951.255z"/>
	<polyline points="491.995,331.238 691.652,531.986 691.652,697.259 527.493,697.259 326.732,496.495 326.732,697.259 
		98.246,697.259 98.246,102.743 691.652,102.743 691.652,331.238 	"/>
	<path d="M678.339,774.907h13.313v5.539h-19.968v-35.491h6.654V774.907 M638.41,768.244l-5.548-16.637l-4.435,16.637H638.41z
		 M639.513,773.785h-13.305l-1.108,6.661h-7.766l12.202-35.491h7.762l12.202,35.491h-7.762L639.513,773.785z M588.498,744.955h6.651
		v35.491h-5.548l-15.524-24.405v24.405h-5.548v-35.491h5.548l15.524,25.509L588.498,744.955z M527.493,750.497
		c-6.66,0-11.095,4.442-11.095,12.205c0,7.762,4.435,13.305,11.095,13.305c4.435,0,9.982-3.322,9.982-12.203
		C537.476,757.15,534.144,750.497,527.493,750.497z M527.493,781.55c-4.435,0-8.874-1.104-12.202-5.543
		c-4.439-4.441-5.543-8.872-5.543-13.305c0-11.095,7.763-18.866,17.745-18.866c8.874,0,16.637,6.661,16.637,18.866
		C544.13,772.685,537.476,781.55,527.493,781.55z M486.456,780.446h-6.659v-35.491h6.659V780.446z M456.505,751.607h-9.982v28.839
		h-6.654v-28.839h-8.87v-6.652h25.507V751.607z M404.374,768.244l-4.44-16.637l-5.541,16.637H404.374z M406.594,773.785h-13.312
		l-2.219,6.661h-6.652l11.089-35.491h7.766l12.198,35.491h-6.654L406.594,773.785z M355.571,744.955h6.652v35.491h-5.542
		l-15.53-24.405v24.405h-6.656v-35.491h5.548l16.639,25.509L355.571,744.955z M289.019,750.497v11.095h2.223
		c2.214,0,3.325,0,4.435,0c1.11,0,6.652,0,6.652-5.551c0,0-1.104-3.324-3.325-4.434c-1.111-1.11-3.327-1.11-6.652-1.11H289.019z
		 M282.367,744.955h11.088c4.437,0,7.769,0,11.093,3.322c2.218,1.11,4.438,4.439,4.438,7.764c0,7.763-5.548,9.982-7.762,9.982
		l7.762,14.423h-6.657l-7.762-13.312h-5.548v13.312h-6.651V744.955z M237.998,751.607v7.763h16.64v5.552h-16.64v9.985h19.966v5.539
		h-26.618v-35.491h24.401v6.652H237.998z M208.053,751.607h-8.874v28.839h-6.657v-28.839h-9.982v-6.652h25.514V751.607z
		 M152.594,744.955h6.652v35.491h-5.542l-15.53-24.405v24.405h-5.546v-35.491h5.546l15.53,25.509L152.594,744.955z M103.788,780.446
		h-5.542v-35.491h5.542V780.446z"/>
	<path d="M611.786,804.847h76.535v21.076h-46.583v14.415h43.256v21.076h-43.256v18.856h49.914v21.078h-79.866V804.847
		 M507.528,804.847h29.947v59.891c0,4.439,0,8.882,3.327,12.201c3.327,2.223,6.65,3.332,9.982,3.332
		c4.435,0,7.763-2.221,9.982-3.332c3.327-3.319,3.327-7.762,3.327-12.201v-59.891h31.055v51.025c0,11.085,0,25.51-11.09,36.593
		c-7.768,6.661-18.853,11.104-33.274,11.104c-14.418,0-26.624-4.442-34.387-11.104c-8.87-8.863-8.87-19.956-8.87-29.939V804.847z
		 M495.326,876.938c-3.331,4.443-5.547,8.884-9.981,13.315c-9.982,9.983-23.292,14.414-37.715,14.414
		c-34.386,0-49.91-26.618-49.91-51.016c0-25.51,17.744-52.138,49.91-52.138c15.53,0,28.839,4.441,38.826,15.535
		c4.435,4.431,6.65,7.764,8.87,11.093l-25.512,12.195c-3.328-5.542-7.762-15.524-21.072-15.524c-6.658,0-9.982,3.329-12.206,5.551
		c-7.763,6.642-7.763,17.745-7.763,21.068c0,14.424,5.547,28.838,21.077,28.838c13.31,0,17.749-13.313,18.852-16.637
		L495.326,876.938z M316.748,868.067c2.223,4.441,4.437,7.771,13.31,9.982c3.332,2.221,8.877,2.221,13.314,2.221
		c2.216,0,14.415,0,14.415-6.651c0-1.11,0-4.442-5.542-6.662c-3.331-1.101-21.078-4.432-24.403-4.432
		c-8.871-2.221-26.618-7.772-26.618-28.841c0-4.44,1.104-7.762,2.214-12.204c6.658-14.414,23.295-19.966,39.935-19.966
		c11.09,0,21.072,2.222,29.945,6.661c6.656,3.322,9.983,6.653,13.309,11.086l-18.856,15.534c-1.105-2.22-3.325-4.432-6.65-6.653
		c-5.548-2.22-13.311-3.329-18.856-3.329c-4.438,0-9.985,1.109-9.985,6.651c0,4.44,4.438,5.541,13.311,6.663
		c21.076,4.43,42.148,7.762,42.148,32.159c0,9.983-4.436,16.637-8.873,21.076c-12.199,13.305-31.055,13.305-36.601,13.305
		c-6.657,0-14.421-1.1-22.184-3.319c-15.531-4.442-22.188-13.314-26.624-18.866L316.748,868.067z M202.506,804.847h76.53v21.076
		h-45.476v14.415h42.147v21.076h-42.147v18.856h49.915v21.078h-80.97V804.847z M128.19,824.813v22.178h13.31
		c4.437,0,14.42,0,14.42-11.086c0-11.092-9.983-11.092-14.42-11.092H128.19z M98.246,804.847h47.69c8.873,0,17.745,0,23.293,3.329
		c13.31,5.542,16.64,17.747,16.64,27.729c0,3.322,0,12.204-6.657,18.848c-4.436,4.441-7.762,5.552-12.198,7.772l23.292,38.823
		H155.92l-18.855-34.392h-8.874v34.392H98.246V804.847z"/>
</g>
</svg>
